<?xml version="1.0" encoding="UTF-8"?>
<svg xmlns="http://www.w3.org/2000/svg" xmlns:xlink="http://www.w3.org/1999/xlink" width="62pt" height="46pt" viewBox="0 0 62 46" version="1.1">
<g id="surface1">
<path style="fill:none;stroke-width:0.3985;stroke-linecap:butt;stroke-linejoin:miter;stroke:rgb(0%,0%,0%);stroke-opacity:1;stroke-miterlimit:10;" d="M -28.346312 -0.00096875 L -28.346312 28.346688 L 28.345094 28.346688 L 28.345094 -0.00096875 L 0.00134375 28.346688 L -28.346312 -0.00096875 " transform="matrix(1,0,0,-1,31.026,43.292)"/>
<path style=" stroke:none;fill-rule:nonzero;fill:rgb(0%,0%,0%);fill-opacity:1;" d="M 4.671875 43.292969 C 4.671875 42.191406 3.78125 41.300781 2.679688 41.300781 C 1.578125 41.300781 0.6875 42.191406 0.6875 43.292969 C 0.6875 44.390625 1.578125 45.285156 2.679688 45.285156 C 3.78125 45.285156 4.671875 44.390625 4.671875 43.292969 Z M 4.671875 43.292969 "/>
<path style=" stroke:none;fill-rule:nonzero;fill:rgb(0%,0%,0%);fill-opacity:1;" d="M 4.671875 14.945312 C 4.671875 13.84375 3.78125 12.953125 2.679688 12.953125 C 1.578125 12.953125 0.6875 13.84375 0.6875 14.945312 C 0.6875 16.046875 1.578125 16.9375 2.679688 16.9375 C 3.78125 16.9375 4.671875 16.046875 4.671875 14.945312 Z M 4.671875 14.945312 "/>
<path style=" stroke:none;fill-rule:nonzero;fill:rgb(0%,0%,0%);fill-opacity:1;" d="M 33.019531 14.945312 C 33.019531 13.84375 32.125 12.953125 31.027344 12.953125 C 29.925781 12.953125 29.035156 13.84375 29.035156 14.945312 C 29.035156 16.046875 29.925781 16.9375 31.027344 16.9375 C 32.125 16.9375 33.019531 16.046875 33.019531 14.945312 Z M 33.019531 14.945312 "/>
<path style=" stroke:none;fill-rule:nonzero;fill:rgb(0%,0%,0%);fill-opacity:1;" d="M 61.367188 14.945312 C 61.367188 13.84375 60.472656 12.953125 59.371094 12.953125 C 58.273438 12.953125 57.378906 13.84375 57.378906 14.945312 C 57.378906 16.046875 58.273438 16.9375 59.371094 16.9375 C 60.472656 16.9375 61.367188 16.046875 61.367188 14.945312 Z M 61.367188 14.945312 "/>
<path style=" stroke:none;fill-rule:nonzero;fill:rgb(0%,0%,0%);fill-opacity:1;" d="M 61.367188 43.292969 C 61.367188 42.191406 60.472656 41.300781 59.371094 41.300781 C 58.273438 41.300781 57.378906 42.191406 57.378906 43.292969 C 57.378906 44.390625 58.273438 45.285156 59.371094 45.285156 C 60.472656 45.285156 61.367188 44.390625 61.367188 43.292969 Z M 61.367188 43.292969 "/>
<path style="fill:none;stroke-width:0.3985;stroke-linecap:butt;stroke-linejoin:miter;stroke:rgb(0%,0%,0%);stroke-opacity:1;stroke-miterlimit:10;" d="M -28.346312 28.346688 C -17.291625 47.495125 17.294313 47.495125 28.345094 28.346688 " transform="matrix(1,0,0,-1,31.026,43.292)"/>
</g>
</svg>
