<?xml version="1.0" encoding="UTF-8"?>
<svg xmlns="http://www.w3.org/2000/svg" xmlns:xlink="http://www.w3.org/1999/xlink" width="260pt" height="62pt" viewBox="0 0 260 62" version="1.1">
<g id="surface1">
<path style="fill:none;stroke-width:0.3985;stroke-linecap:butt;stroke-linejoin:miter;stroke:rgb(0%,0%,0%);stroke-opacity:1;stroke-miterlimit:10;" d="M -0.0003125 0.00065625 L -0.0003125 56.692062 " transform="matrix(1,0,0,-1,2.68,59.653)"/>
<path style=" stroke:none;fill-rule:nonzero;fill:rgb(0%,0%,0%);fill-opacity:1;" d="M 4.671875 59.652344 C 4.671875 58.550781 3.78125 57.660156 2.679688 57.660156 C 1.578125 57.660156 0.6875 58.550781 0.6875 59.652344 C 0.6875 60.753906 1.578125 61.644531 2.679688 61.644531 C 3.78125 61.644531 4.671875 60.753906 4.671875 59.652344 Z M 4.671875 59.652344 "/>
<path style=" stroke:none;fill-rule:nonzero;fill:rgb(0%,0%,0%);fill-opacity:1;" d="M 4.671875 2.960938 C 4.671875 1.859375 3.78125 0.96875 2.679688 0.96875 C 1.578125 0.96875 0.6875 1.859375 0.6875 2.960938 C 0.6875 4.058594 1.578125 4.953125 2.679688 4.953125 C 3.78125 4.953125 4.671875 4.058594 4.671875 2.960938 Z M 4.671875 2.960938 "/>
<path style="fill:none;stroke-width:0.3985;stroke-linecap:butt;stroke-linejoin:miter;stroke:rgb(0%,0%,0%);stroke-opacity:1;stroke-miterlimit:10;" d="M 28.347344 0.00065625 L 28.347344 56.692062 " transform="matrix(1,0,0,-1,2.68,59.653)"/>
<path style=" stroke:none;fill-rule:nonzero;fill:rgb(0%,0%,0%);fill-opacity:1;" d="M 33.019531 59.652344 C 33.019531 58.550781 32.128906 57.660156 31.027344 57.660156 C 29.925781 57.660156 29.035156 58.550781 29.035156 59.652344 C 29.035156 60.753906 29.925781 61.644531 31.027344 61.644531 C 32.128906 61.644531 33.019531 60.753906 33.019531 59.652344 Z M 33.019531 59.652344 "/>
<path style=" stroke:none;fill-rule:nonzero;fill:rgb(0%,0%,0%);fill-opacity:1;" d="M 33.019531 2.960938 C 33.019531 1.859375 32.128906 0.96875 31.027344 0.96875 C 29.925781 0.96875 29.035156 1.859375 29.035156 2.960938 C 29.035156 4.058594 29.925781 4.953125 31.027344 4.953125 C 32.128906 4.953125 33.019531 4.058594 33.019531 2.960938 Z M 33.019531 2.960938 "/>
<path style="fill:none;stroke-width:0.3985;stroke-linecap:butt;stroke-linejoin:miter;stroke:rgb(0%,0%,0%);stroke-opacity:1;stroke-miterlimit:10;" d="M 56.695 0.00065625 L 56.695 56.692062 " transform="matrix(1,0,0,-1,2.68,59.653)"/>
<path style=" stroke:none;fill-rule:nonzero;fill:rgb(0%,0%,0%);fill-opacity:1;" d="M 61.367188 59.652344 C 61.367188 58.550781 60.472656 57.660156 59.375 57.660156 C 58.273438 57.660156 57.382812 58.550781 57.382812 59.652344 C 57.382812 60.753906 58.273438 61.644531 59.375 61.644531 C 60.472656 61.644531 61.367188 60.753906 61.367188 59.652344 Z M 61.367188 59.652344 "/>
<path style=" stroke:none;fill-rule:nonzero;fill:rgb(0%,0%,0%);fill-opacity:1;" d="M 61.367188 2.960938 C 61.367188 1.859375 60.472656 0.96875 59.375 0.96875 C 58.273438 0.96875 57.382812 1.859375 57.382812 2.960938 C 57.382812 4.058594 58.273438 4.953125 59.375 4.953125 C 60.472656 4.953125 61.367188 4.058594 61.367188 2.960938 Z M 61.367188 2.960938 "/>
<path style="fill:none;stroke-width:0.3985;stroke-linecap:butt;stroke-linejoin:miter;stroke:rgb(0%,0%,0%);stroke-opacity:1;stroke-miterlimit:10;" d="M 85.03875 0.00065625 L 85.03875 56.692062 " transform="matrix(1,0,0,-1,2.68,59.653)"/>
<path style=" stroke:none;fill-rule:nonzero;fill:rgb(0%,0%,0%);fill-opacity:1;" d="M 89.714844 59.652344 C 89.714844 58.550781 88.820312 57.660156 87.71875 57.660156 C 86.621094 57.660156 85.726562 58.550781 85.726562 59.652344 C 85.726562 60.753906 86.621094 61.644531 87.71875 61.644531 C 88.820312 61.644531 89.714844 60.753906 89.714844 59.652344 Z M 89.714844 59.652344 "/>
<path style=" stroke:none;fill-rule:nonzero;fill:rgb(0%,0%,0%);fill-opacity:1;" d="M 89.714844 2.960938 C 89.714844 1.859375 88.820312 0.96875 87.71875 0.96875 C 86.621094 0.96875 85.726562 1.859375 85.726562 2.960938 C 85.726562 4.058594 86.621094 4.953125 87.71875 4.953125 C 88.820312 4.953125 89.714844 4.058594 89.714844 2.960938 Z M 89.714844 2.960938 "/>
<path style="fill:none;stroke-width:0.3985;stroke-linecap:butt;stroke-linejoin:miter;stroke:rgb(0%,0%,0%);stroke-opacity:1;stroke-miterlimit:10;" d="M 113.386406 0.00065625 L 113.386406 56.692062 " transform="matrix(1,0,0,-1,2.68,59.653)"/>
<path style=" stroke:none;fill-rule:nonzero;fill:rgb(0%,0%,0%);fill-opacity:1;" d="M 118.058594 59.652344 C 118.058594 58.550781 117.167969 57.660156 116.066406 57.660156 C 114.964844 57.660156 114.074219 58.550781 114.074219 59.652344 C 114.074219 60.753906 114.964844 61.644531 116.066406 61.644531 C 117.167969 61.644531 118.058594 60.753906 118.058594 59.652344 Z M 118.058594 59.652344 "/>
<path style=" stroke:none;fill-rule:nonzero;fill:rgb(0%,0%,0%);fill-opacity:1;" d="M 118.058594 2.960938 C 118.058594 1.859375 117.167969 0.96875 116.066406 0.96875 C 114.964844 0.96875 114.074219 1.859375 114.074219 2.960938 C 114.074219 4.058594 114.964844 4.953125 116.066406 4.953125 C 117.167969 4.953125 118.058594 4.058594 118.058594 2.960938 Z M 118.058594 2.960938 "/>
<path style="fill:none;stroke-width:0.3985;stroke-linecap:butt;stroke-linejoin:miter;stroke:rgb(0%,0%,0%);stroke-opacity:1;stroke-miterlimit:10;" d="M 141.734062 0.00065625 L 141.734062 56.692062 " transform="matrix(1,0,0,-1,2.68,59.653)"/>
<path style=" stroke:none;fill-rule:nonzero;fill:rgb(0%,0%,0%);fill-opacity:1;" d="M 146.40625 59.652344 C 146.40625 58.550781 145.515625 57.660156 144.414062 57.660156 C 143.3125 57.660156 142.421875 58.550781 142.421875 59.652344 C 142.421875 60.753906 143.3125 61.644531 144.414062 61.644531 C 145.515625 61.644531 146.40625 60.753906 146.40625 59.652344 Z M 146.40625 59.652344 "/>
<path style=" stroke:none;fill-rule:nonzero;fill:rgb(0%,0%,0%);fill-opacity:1;" d="M 146.40625 2.960938 C 146.40625 1.859375 145.515625 0.96875 144.414062 0.96875 C 143.3125 0.96875 142.421875 1.859375 142.421875 2.960938 C 142.421875 4.058594 143.3125 4.953125 144.414062 4.953125 C 145.515625 4.953125 146.40625 4.058594 146.40625 2.960938 Z M 146.40625 2.960938 "/>
<path style="fill:none;stroke-width:0.3985;stroke-linecap:butt;stroke-linejoin:miter;stroke:rgb(0%,0%,0%);stroke-opacity:1;stroke-miterlimit:10;" d="M 170.081719 0.00065625 L 170.081719 56.692062 " transform="matrix(1,0,0,-1,2.68,59.653)"/>
<path style=" stroke:none;fill-rule:nonzero;fill:rgb(0%,0%,0%);fill-opacity:1;" d="M 174.753906 59.652344 C 174.753906 58.550781 173.859375 57.660156 172.761719 57.660156 C 171.660156 57.660156 170.769531 58.550781 170.769531 59.652344 C 170.769531 60.753906 171.660156 61.644531 172.761719 61.644531 C 173.859375 61.644531 174.753906 60.753906 174.753906 59.652344 Z M 174.753906 59.652344 "/>
<path style=" stroke:none;fill-rule:nonzero;fill:rgb(0%,0%,0%);fill-opacity:1;" d="M 174.753906 2.960938 C 174.753906 1.859375 173.859375 0.96875 172.761719 0.96875 C 171.660156 0.96875 170.769531 1.859375 170.769531 2.960938 C 170.769531 4.058594 171.660156 4.953125 172.761719 4.953125 C 173.859375 4.953125 174.753906 4.058594 174.753906 2.960938 Z M 174.753906 2.960938 "/>
<path style="fill:none;stroke-width:0.3985;stroke-linecap:butt;stroke-linejoin:miter;stroke:rgb(0%,0%,0%);stroke-opacity:1;stroke-miterlimit:10;" d="M 198.429375 0.00065625 L 198.429375 56.692062 " transform="matrix(1,0,0,-1,2.68,59.653)"/>
<path style=" stroke:none;fill-rule:nonzero;fill:rgb(0%,0%,0%);fill-opacity:1;" d="M 203.101562 59.652344 C 203.101562 58.550781 202.207031 57.660156 201.109375 57.660156 C 200.007812 57.660156 199.113281 58.550781 199.113281 59.652344 C 199.113281 60.753906 200.007812 61.644531 201.109375 61.644531 C 202.207031 61.644531 203.101562 60.753906 203.101562 59.652344 Z M 203.101562 59.652344 "/>
<path style=" stroke:none;fill-rule:nonzero;fill:rgb(0%,0%,0%);fill-opacity:1;" d="M 203.101562 2.960938 C 203.101562 1.859375 202.207031 0.96875 201.109375 0.96875 C 200.007812 0.96875 199.113281 1.859375 199.113281 2.960938 C 199.113281 4.058594 200.007812 4.953125 201.109375 4.953125 C 202.207031 4.953125 203.101562 4.058594 203.101562 2.960938 Z M 203.101562 2.960938 "/>
<path style="fill:none;stroke-width:0.3985;stroke-linecap:butt;stroke-linejoin:miter;stroke:rgb(0%,0%,0%);stroke-opacity:1;stroke-miterlimit:10;" d="M 226.773125 0.00065625 L 226.773125 56.692062 " transform="matrix(1,0,0,-1,2.68,59.653)"/>
<path style=" stroke:none;fill-rule:nonzero;fill:rgb(0%,0%,0%);fill-opacity:1;" d="M 231.445312 59.652344 C 231.445312 58.550781 230.554688 57.660156 229.453125 57.660156 C 228.355469 57.660156 227.460938 58.550781 227.460938 59.652344 C 227.460938 60.753906 228.355469 61.644531 229.453125 61.644531 C 230.554688 61.644531 231.445312 60.753906 231.445312 59.652344 Z M 231.445312 59.652344 "/>
<path style=" stroke:none;fill-rule:nonzero;fill:rgb(0%,0%,0%);fill-opacity:1;" d="M 231.445312 2.960938 C 231.445312 1.859375 230.554688 0.96875 229.453125 0.96875 C 228.355469 0.96875 227.460938 1.859375 227.460938 2.960938 C 227.460938 4.058594 228.355469 4.953125 229.453125 4.953125 C 230.554688 4.953125 231.445312 4.058594 231.445312 2.960938 Z M 231.445312 2.960938 "/>
<path style="fill:none;stroke-width:0.3985;stroke-linecap:butt;stroke-linejoin:miter;stroke:rgb(0%,0%,0%);stroke-opacity:1;stroke-miterlimit:10;" d="M 255.120781 0.00065625 L 255.120781 56.692062 " transform="matrix(1,0,0,-1,2.68,59.653)"/>
<path style=" stroke:none;fill-rule:nonzero;fill:rgb(0%,0%,0%);fill-opacity:1;" d="M 259.792969 59.652344 C 259.792969 58.550781 258.902344 57.660156 257.800781 57.660156 C 256.699219 57.660156 255.808594 58.550781 255.808594 59.652344 C 255.808594 60.753906 256.699219 61.644531 257.800781 61.644531 C 258.902344 61.644531 259.792969 60.753906 259.792969 59.652344 Z M 259.792969 59.652344 "/>
<path style=" stroke:none;fill-rule:nonzero;fill:rgb(0%,0%,0%);fill-opacity:1;" d="M 259.792969 2.960938 C 259.792969 1.859375 258.902344 0.96875 257.800781 0.96875 C 256.699219 0.96875 255.808594 1.859375 255.808594 2.960938 C 255.808594 4.058594 256.699219 4.953125 257.800781 4.953125 C 258.902344 4.953125 259.792969 4.058594 259.792969 2.960938 Z M 259.792969 2.960938 "/>
<path style="fill:none;stroke-width:0.3985;stroke-linecap:butt;stroke-linejoin:miter;stroke:rgb(0%,0%,0%);stroke-opacity:1;stroke-miterlimit:10;" d="M -0.0003125 0.00065625 L 28.347344 56.692062 L 56.695 0.00065625 L 85.03875 56.692062 L 113.386406 0.00065625 L 141.734062 56.692062 L 170.081719 0.00065625 L 198.429375 56.692062 L 226.773125 0.00065625 L 255.120781 56.692062 " transform="matrix(1,0,0,-1,2.68,59.653)"/>
<path style="fill:none;stroke-width:0.3985;stroke-linecap:butt;stroke-linejoin:miter;stroke:rgb(0%,0%,0%);stroke-opacity:1;stroke-miterlimit:10;" d="M -0.0003125 56.692062 L 28.347344 0.00065625 L 56.695 56.692062 L 85.03875 0.00065625 L 113.386406 56.692062 L 141.734062 0.00065625 L 170.081719 56.692062 L 198.429375 0.00065625 L 226.773125 56.692062 L 255.120781 0.00065625 " transform="matrix(1,0,0,-1,2.68,59.653)"/>
</g>
</svg>
