<?xml version="1.0" encoding="UTF-8"?>
<svg xmlns="http://www.w3.org/2000/svg" xmlns:xlink="http://www.w3.org/1999/xlink" width="62pt" height="34pt" viewBox="0 0 62 34" version="1.1">
<g id="surface1">
<path style="fill:none;stroke-width:0.3985;stroke-linecap:butt;stroke-linejoin:miter;stroke:rgb(0%,0%,0%);stroke-opacity:1;stroke-miterlimit:10;" d="M -0.0003125 -0.00159375 L 28.347344 28.346063 L 56.695 -0.00159375 L 56.695 28.346063 L -0.0003125 -0.00159375 L -0.0003125 28.346063 L 28.347344 -0.00159375 " transform="matrix(1,0,0,-1,2.68,31.307)"/>
<path style=" stroke:none;fill-rule:nonzero;fill:rgb(0%,0%,0%);fill-opacity:1;" d="M 4.671875 31.308594 C 4.671875 30.207031 3.78125 29.3125 2.679688 29.3125 C 1.578125 29.3125 0.6875 30.207031 0.6875 31.308594 C 0.6875 32.40625 1.578125 33.300781 2.679688 33.300781 C 3.78125 33.300781 4.671875 32.40625 4.671875 31.308594 Z M 4.671875 31.308594 "/>
<path style=" stroke:none;fill-rule:nonzero;fill:rgb(0%,0%,0%);fill-opacity:1;" d="M 33.019531 2.960938 C 33.019531 1.859375 32.128906 0.96875 31.027344 0.96875 C 29.925781 0.96875 29.035156 1.859375 29.035156 2.960938 C 29.035156 4.0625 29.925781 4.953125 31.027344 4.953125 C 32.128906 4.953125 33.019531 4.0625 33.019531 2.960938 Z M 33.019531 2.960938 "/>
<path style=" stroke:none;fill-rule:nonzero;fill:rgb(0%,0%,0%);fill-opacity:1;" d="M 61.367188 31.308594 C 61.367188 30.207031 60.472656 29.3125 59.375 29.3125 C 58.273438 29.3125 57.382812 30.207031 57.382812 31.308594 C 57.382812 32.40625 58.273438 33.300781 59.375 33.300781 C 60.472656 33.300781 61.367188 32.40625 61.367188 31.308594 Z M 61.367188 31.308594 "/>
<path style=" stroke:none;fill-rule:nonzero;fill:rgb(0%,0%,0%);fill-opacity:1;" d="M 61.367188 2.960938 C 61.367188 1.859375 60.472656 0.96875 59.375 0.96875 C 58.273438 0.96875 57.382812 1.859375 57.382812 2.960938 C 57.382812 4.0625 58.273438 4.953125 59.375 4.953125 C 60.472656 4.953125 61.367188 4.0625 61.367188 2.960938 Z M 61.367188 2.960938 "/>
<path style=" stroke:none;fill-rule:nonzero;fill:rgb(0%,0%,0%);fill-opacity:1;" d="M 4.671875 31.308594 C 4.671875 30.207031 3.78125 29.3125 2.679688 29.3125 C 1.578125 29.3125 0.6875 30.207031 0.6875 31.308594 C 0.6875 32.40625 1.578125 33.300781 2.679688 33.300781 C 3.78125 33.300781 4.671875 32.40625 4.671875 31.308594 Z M 4.671875 31.308594 "/>
<path style=" stroke:none;fill-rule:nonzero;fill:rgb(0%,0%,0%);fill-opacity:1;" d="M 4.671875 2.960938 C 4.671875 1.859375 3.78125 0.96875 2.679688 0.96875 C 1.578125 0.96875 0.6875 1.859375 0.6875 2.960938 C 0.6875 4.0625 1.578125 4.953125 2.679688 4.953125 C 3.78125 4.953125 4.671875 4.0625 4.671875 2.960938 Z M 4.671875 2.960938 "/>
<path style=" stroke:none;fill-rule:nonzero;fill:rgb(0%,0%,0%);fill-opacity:1;" d="M 33.019531 31.308594 C 33.019531 30.207031 32.128906 29.3125 31.027344 29.3125 C 29.925781 29.3125 29.035156 30.207031 29.035156 31.308594 C 29.035156 32.40625 29.925781 33.300781 31.027344 33.300781 C 32.128906 33.300781 33.019531 32.40625 33.019531 31.308594 Z M 33.019531 31.308594 "/>
</g>
</svg>
