<?xml version="1.0" encoding="UTF-8"?>
<svg xmlns="http://www.w3.org/2000/svg" xmlns:xlink="http://www.w3.org/1999/xlink" width="101pt" height="39pt" viewBox="0 0 101 39" version="1.1">
<g id="surface1">
<path style="fill:none;stroke-width:0.3985;stroke-linecap:butt;stroke-linejoin:miter;stroke:rgb(0%,0%,0%);stroke-opacity:1;stroke-miterlimit:10;" d="M -0.0008125 -0.00159375 L -0.0008125 28.346063 M 28.346844 -0.00159375 L 28.346844 28.346063 M 56.6945 -0.00159375 L 56.6945 28.346063 " transform="matrix(1,0,0,-1,7.868,31.307)"/>
<path style=" stroke:none;fill-rule:nonzero;fill:rgb(0%,0%,0%);fill-opacity:1;" d="M 9.859375 31.308594 C 9.859375 30.207031 8.96875 29.3125 7.867188 29.3125 C 6.765625 29.3125 5.875 30.207031 5.875 31.308594 C 5.875 32.40625 6.765625 33.300781 7.867188 33.300781 C 8.96875 33.300781 9.859375 32.40625 9.859375 31.308594 Z M 9.859375 31.308594 "/>
<path style=" stroke:none;fill-rule:nonzero;fill:rgb(0%,0%,0%);fill-opacity:1;" d="M 9.859375 2.960938 C 9.859375 1.859375 8.96875 0.96875 7.867188 0.96875 C 6.765625 0.96875 5.875 1.859375 5.875 2.960938 C 5.875 4.0625 6.765625 4.953125 7.867188 4.953125 C 8.96875 4.953125 9.859375 4.0625 9.859375 2.960938 Z M 9.859375 2.960938 "/>
<path style=" stroke:none;fill-rule:nonzero;fill:rgb(0%,0%,0%);fill-opacity:1;" d="M 38.207031 31.308594 C 38.207031 30.207031 37.316406 29.3125 36.214844 29.3125 C 35.113281 29.3125 34.222656 30.207031 34.222656 31.308594 C 34.222656 32.40625 35.113281 33.300781 36.214844 33.300781 C 37.316406 33.300781 38.207031 32.40625 38.207031 31.308594 Z M 38.207031 31.308594 "/>
<path style=" stroke:none;fill-rule:nonzero;fill:rgb(0%,0%,0%);fill-opacity:1;" d="M 38.207031 2.960938 C 38.207031 1.859375 37.316406 0.96875 36.214844 0.96875 C 35.113281 0.96875 34.222656 1.859375 34.222656 2.960938 C 34.222656 4.0625 35.113281 4.953125 36.214844 4.953125 C 37.316406 4.953125 38.207031 4.0625 38.207031 2.960938 Z M 38.207031 2.960938 "/>
<path style=" stroke:none;fill-rule:nonzero;fill:rgb(0%,0%,0%);fill-opacity:1;" d="M 66.554688 31.308594 C 66.554688 30.207031 65.660156 29.3125 64.5625 29.3125 C 63.460938 29.3125 62.570312 30.207031 62.570312 31.308594 C 62.570312 32.40625 63.460938 33.300781 64.5625 33.300781 C 65.660156 33.300781 66.554688 32.40625 66.554688 31.308594 Z M 66.554688 31.308594 "/>
<path style=" stroke:none;fill-rule:nonzero;fill:rgb(0%,0%,0%);fill-opacity:1;" d="M 66.554688 2.960938 C 66.554688 1.859375 65.660156 0.96875 64.5625 0.96875 C 63.460938 0.96875 62.570312 1.859375 62.570312 2.960938 C 62.570312 4.0625 63.460938 4.953125 64.5625 4.953125 C 65.660156 4.953125 66.554688 4.0625 66.554688 2.960938 Z M 66.554688 2.960938 "/>
<path style=" stroke:none;fill-rule:nonzero;fill:rgb(0%,0%,0%);fill-opacity:1;" d="M 94.902344 31.308594 C 94.902344 30.207031 94.007812 29.3125 92.910156 29.3125 C 91.808594 29.3125 90.914062 30.207031 90.914062 31.308594 C 90.914062 32.40625 91.808594 33.300781 92.910156 33.300781 C 94.007812 33.300781 94.902344 32.40625 94.902344 31.308594 Z M 94.902344 31.308594 "/>
<path style=" stroke:none;fill-rule:nonzero;fill:rgb(0%,0%,0%);fill-opacity:1;" d="M 94.902344 2.960938 C 94.902344 1.859375 94.007812 0.96875 92.910156 0.96875 C 91.808594 0.96875 90.914062 1.859375 90.914062 2.960938 C 90.914062 4.0625 91.808594 4.953125 92.910156 4.953125 C 94.007812 4.953125 94.902344 4.0625 94.902344 2.960938 Z M 94.902344 2.960938 "/>
<path style="fill:none;stroke-width:0.3985;stroke-linecap:butt;stroke-linejoin:miter;stroke:rgb(0%,0%,0%);stroke-opacity:1;stroke-miterlimit:10;" d="M -0.0008125 -0.00159375 L 56.6945 28.346063 L 28.346844 -0.00159375 L 85.042156 28.346063 M -0.0008125 28.346063 L 56.6945 -0.00159375 M -0.0008125 28.346063 L 85.042156 -0.00159375 L 56.6945 28.346063 " transform="matrix(1,0,0,-1,7.868,31.307)"/>
<path style="fill:none;stroke-width:0.3985;stroke-linecap:butt;stroke-linejoin:miter;stroke:rgb(0%,0%,0%);stroke-opacity:1;stroke-dasharray:2.98883,2.98883;stroke-miterlimit:10;" d="M 6.97575 -0.00159375 C 6.97575 3.849969 3.85075 6.974969 -0.0008125 6.974969 C -3.852375 6.974969 -6.973469 3.849969 -6.973469 -0.00159375 C -6.973469 -3.853156 -3.852375 -6.97425 -0.0008125 -6.97425 C 3.85075 -6.97425 6.97575 -3.853156 6.97575 -0.00159375 Z M 63.667156 -0.00159375 C 63.667156 3.849969 60.546062 6.974969 56.6945 6.974969 C 52.842937 6.974969 49.717937 3.849969 49.717937 -0.00159375 C 49.717937 -3.853156 52.842937 -6.97425 56.6945 -6.97425 C 60.546062 -6.97425 63.667156 -3.853156 63.667156 -0.00159375 Z M 92.014813 -0.00159375 C 92.014813 3.849969 88.893719 6.974969 85.042156 6.974969 C 81.190594 6.974969 78.065594 3.849969 78.065594 -0.00159375 C 78.065594 -3.853156 81.190594 -6.97425 85.042156 -6.97425 C 88.893719 -6.97425 92.014813 -3.853156 92.014813 -0.00159375 Z M 92.014813 -0.00159375 " transform="matrix(1,0,0,-1,7.868,31.307)"/>
</g>
</svg>
