<?xml version="1.0" encoding="UTF-8"?>
<svg xmlns="http://www.w3.org/2000/svg" xmlns:xlink="http://www.w3.org/1999/xlink" width="83pt" height="42pt" viewBox="0 0 83 42" version="1.1">
<g id="surface1">
<path style=" stroke:none;fill-rule:nonzero;fill:rgb(0%,0%,0%);fill-opacity:1;" d="M 18.753906 3.152344 C 18.753906 1.742188 17.609375 0.597656 16.199219 0.597656 C 14.792969 0.597656 13.648438 1.742188 13.648438 3.152344 C 13.648438 4.558594 14.792969 5.703125 16.199219 5.703125 C 17.609375 5.703125 18.753906 4.558594 18.753906 3.152344 Z M 44.265625 3.152344 C 44.265625 1.742188 43.121094 0.597656 41.714844 0.597656 C 40.304688 0.597656 39.160156 1.742188 39.160156 3.152344 C 39.160156 4.558594 40.304688 5.703125 41.714844 5.703125 C 43.121094 5.703125 44.265625 4.558594 44.265625 3.152344 Z M 69.777344 3.152344 C 69.777344 1.742188 68.632812 0.597656 67.226562 0.597656 C 65.816406 0.597656 64.671875 1.742188 64.671875 3.152344 C 64.671875 4.558594 65.816406 5.703125 67.226562 5.703125 C 68.632812 5.703125 69.777344 4.558594 69.777344 3.152344 Z M 69.777344 3.152344 "/>
<path style="fill:none;stroke-width:0.3985;stroke-linecap:butt;stroke-linejoin:miter;stroke:rgb(0%,0%,0%);stroke-opacity:1;stroke-miterlimit:10;" d="M -28.064563 25.511094 L -38.095813 0.425156 " transform="matrix(1,0,0,-1,41.713,33.765)"/>
<path style="fill:none;stroke-width:0.31879;stroke-linecap:round;stroke-linejoin:round;stroke:rgb(0%,0%,0%);stroke-opacity:1;stroke-miterlimit:10;" d="M -1.196568 1.593349 C -1.097185 0.997818 -0.0011343 0.0983661 0.299172 -0.000281478 C -0.00185747 -0.0996611 -1.094987 -0.995511 -1.195807 -1.595396 " transform="matrix(-0.3714,0.92847,0.92847,0.3714,3.61528,33.33952)"/>
<path style="fill:none;stroke-width:0.3985;stroke-linecap:butt;stroke-linejoin:miter;stroke:rgb(0%,0%,0%);stroke-opacity:1;stroke-miterlimit:10;" d="M -22.959094 25.511094 L -12.927844 0.425156 " transform="matrix(1,0,0,-1,41.713,33.765)"/>
<path style="fill:none;stroke-width:0.31879;stroke-linecap:round;stroke-linejoin:round;stroke:rgb(0%,0%,0%);stroke-opacity:1;stroke-miterlimit:10;" d="M -1.195724 1.595604 C -1.094904 0.995718 -0.00177437 0.0998689 0.299255 0.000489224 C -0.0010512 -0.0981583 -1.097102 -0.99761 -1.196485 -1.593142 " transform="matrix(0.3714,0.92847,0.92847,-0.3714,28.78684,33.33952)"/>
<path style="fill:none;stroke-width:0.3985;stroke-linecap:butt;stroke-linejoin:miter;stroke:rgb(0%,0%,0%);stroke-opacity:1;stroke-miterlimit:10;" d="M 0.00184375 25.511094 L 12.552625 0.409531 " transform="matrix(1,0,0,-1,41.713,33.765)"/>
<path style="fill:none;stroke-width:0.31879;stroke-linecap:round;stroke-linejoin:round;stroke:rgb(0%,0%,0%);stroke-opacity:1;stroke-miterlimit:10;" d="M -1.193815 1.59451 C -1.096004 0.995315 0.00103679 0.097369 0.29801 0.00128053 C -0.00071538 -0.0982858 -1.096058 -0.996173 -1.193901 -1.593616 " transform="matrix(0.44724,0.89442,0.89442,-0.44724,54.26401,33.35512)"/>
<path style="fill:none;stroke-width:0.3985;stroke-linecap:butt;stroke-linejoin:miter;stroke:rgb(0%,0%,0%);stroke-opacity:1;stroke-miterlimit:10;" d="M 25.513562 25.511094 L 38.064344 0.409531 " transform="matrix(1,0,0,-1,41.713,33.765)"/>
<path style="fill:none;stroke-width:0.31879;stroke-linecap:round;stroke-linejoin:round;stroke:rgb(0%,0%,0%);stroke-opacity:1;stroke-miterlimit:10;" d="M -1.19389 1.594325 C -1.096085 0.995131 0.000943175 0.0971796 0.297915 0.00108892 C -0.000810736 -0.0984743 -1.096156 -0.996347 -1.194004 -1.593787 " transform="matrix(0.44725,0.89442,0.89442,-0.44725,79.77594,33.35512)"/>
<path style="fill:none;stroke-width:0.3985;stroke-linecap:butt;stroke-linejoin:miter;stroke:rgb(0%,0%,0%);stroke-opacity:1;stroke-miterlimit:10;" d="M -10.205188 -5.102187 C -10.205188 -3.692031 -11.345813 -2.551406 -12.755969 -2.551406 C -14.166125 -2.551406 -15.30675 -3.692031 -15.30675 -5.102187 C -15.30675 -6.512344 -14.166125 -7.652969 -12.755969 -7.652969 C -11.345813 -7.652969 -10.205188 -6.512344 -10.205188 -5.102187 Z M 15.306531 -5.102187 C 15.306531 -3.692031 14.165906 -2.551406 12.75575 -2.551406 C 11.345594 -2.551406 10.204969 -3.692031 10.204969 -5.102187 C 10.204969 -6.512344 11.345594 -7.652969 12.75575 -7.652969 C 14.165906 -7.652969 15.306531 -6.512344 15.306531 -5.102187 Z M -35.716906 -5.102187 C -35.716906 -3.692031 -36.857531 -2.551406 -38.267688 -2.551406 C -39.677844 -2.551406 -40.818469 -3.692031 -40.818469 -5.102187 C -40.818469 -6.512344 -39.677844 -7.652969 -38.267688 -7.652969 C -36.857531 -7.652969 -35.716906 -6.512344 -35.716906 -5.102187 Z M 40.81825 -5.102187 C 40.81825 -3.692031 39.677625 -2.551406 38.267469 -2.551406 C 36.857312 -2.551406 35.716687 -3.692031 35.716687 -5.102187 C 35.716687 -6.512344 36.857312 -7.652969 38.267469 -7.652969 C 39.677625 -7.652969 40.81825 -6.512344 40.81825 -5.102187 Z M 40.81825 -5.102187 " transform="matrix(1,0,0,-1,41.713,33.765)"/>
</g>
</svg>
