<?xml version="1.0" encoding="UTF-8"?>
<svg xmlns="http://www.w3.org/2000/svg" xmlns:xlink="http://www.w3.org/1999/xlink" width="119pt" height="45pt" viewBox="0 0 119 45" version="1.1">
<g id="surface1">
<path style="fill:none;stroke-width:0.3985;stroke-linecap:butt;stroke-linejoin:miter;stroke:rgb(0%,0%,0%);stroke-opacity:1;stroke-miterlimit:10;" d="M -56.692312 0.00146875 L 56.694406 0.00146875 L -0.00090625 19.841313 L -56.692312 0.00146875 L -0.00090625 39.685063 L 56.694406 0.00146875 M -0.00090625 39.685063 L -0.00090625 19.841313 " transform="matrix(1,0,0,-1,59.372,42.646)"/>
<path style=" stroke:none;fill-rule:nonzero;fill:rgb(0%,0%,0%);fill-opacity:1;" d="M 4.671875 42.644531 C 4.671875 41.546875 3.777344 40.652344 2.679688 40.652344 C 1.578125 40.652344 0.6875 41.546875 0.6875 42.644531 C 0.6875 43.746094 1.578125 44.636719 2.679688 44.636719 C 3.777344 44.636719 4.671875 43.746094 4.671875 42.644531 Z M 4.671875 42.644531 "/>
<path style=" stroke:none;fill-rule:nonzero;fill:rgb(0%,0%,0%);fill-opacity:1;" d="M 61.363281 42.644531 C 61.363281 41.546875 60.472656 40.652344 59.371094 40.652344 C 58.273438 40.652344 57.378906 41.546875 57.378906 42.644531 C 57.378906 43.746094 58.273438 44.636719 59.371094 44.636719 C 60.472656 44.636719 61.363281 43.746094 61.363281 42.644531 Z M 61.363281 42.644531 "/>
<path style=" stroke:none;fill-rule:nonzero;fill:rgb(0%,0%,0%);fill-opacity:1;" d="M 118.058594 42.644531 C 118.058594 41.546875 117.167969 40.652344 116.066406 40.652344 C 114.964844 40.652344 114.074219 41.546875 114.074219 42.644531 C 114.074219 43.746094 114.964844 44.636719 116.066406 44.636719 C 117.167969 44.636719 118.058594 43.746094 118.058594 42.644531 Z M 118.058594 42.644531 "/>
<path style=" stroke:none;fill-rule:nonzero;fill:rgb(0%,0%,0%);fill-opacity:1;" d="M 61.363281 22.804688 C 61.363281 21.703125 60.472656 20.8125 59.371094 20.8125 C 58.273438 20.8125 57.378906 21.703125 57.378906 22.804688 C 57.378906 23.902344 58.273438 24.796875 59.371094 24.796875 C 60.472656 24.796875 61.363281 23.902344 61.363281 22.804688 Z M 61.363281 22.804688 "/>
<path style=" stroke:none;fill-rule:nonzero;fill:rgb(0%,0%,0%);fill-opacity:1;" d="M 61.363281 2.960938 C 61.363281 1.859375 60.472656 0.96875 59.371094 0.96875 C 58.273438 0.96875 57.378906 1.859375 57.378906 2.960938 C 57.378906 4.0625 58.273438 4.953125 59.371094 4.953125 C 60.472656 4.953125 61.363281 4.0625 61.363281 2.960938 Z M 61.363281 2.960938 "/>
</g>
</svg>
