<?xml version="1.0" encoding="UTF-8"?>
<svg xmlns="http://www.w3.org/2000/svg" xmlns:xlink="http://www.w3.org/1999/xlink" width="73pt" height="51pt" viewBox="0 0 73 51" version="1.1">
<g id="surface1">
<path style="fill:none;stroke-width:0.3985;stroke-linecap:butt;stroke-linejoin:miter;stroke:rgb(0%,0%,0%);stroke-opacity:1;stroke-miterlimit:10;" d="M -0.0016875 0.00059375 L -34.017313 11.340437 L -0.0016875 34.016219 L 34.017844 11.340437 L -0.0016875 0.00059375 L -22.677469 45.356062 L -0.0016875 34.016219 L 22.678 45.356062 L -0.0016875 0.00059375 L -0.0016875 34.016219 " transform="matrix(1,0,0,-1,36.697,48.317)"/>
<path style=" stroke:none;fill-rule:nonzero;fill:rgb(0%,0%,0%);fill-opacity:1;" d="M 38.691406 48.316406 C 38.691406 47.214844 37.796875 46.324219 36.695312 46.324219 C 35.597656 46.324219 34.703125 47.214844 34.703125 48.316406 C 34.703125 49.417969 35.597656 50.308594 36.695312 50.308594 C 37.796875 50.308594 38.691406 49.417969 38.691406 48.316406 Z M 38.691406 48.316406 "/>
<path style=" stroke:none;fill-rule:nonzero;fill:rgb(0%,0%,0%);fill-opacity:1;" d="M 4.671875 36.976562 C 4.671875 35.878906 3.78125 34.984375 2.679688 34.984375 C 1.582031 34.984375 0.6875 35.878906 0.6875 36.976562 C 0.6875 38.078125 1.582031 38.972656 2.679688 38.972656 C 3.78125 38.972656 4.671875 38.078125 4.671875 36.976562 Z M 4.671875 36.976562 "/>
<path style=" stroke:none;fill-rule:nonzero;fill:rgb(0%,0%,0%);fill-opacity:1;" d="M 38.691406 14.300781 C 38.691406 13.199219 37.796875 12.308594 36.695312 12.308594 C 35.597656 12.308594 34.703125 13.199219 34.703125 14.300781 C 34.703125 15.402344 35.597656 16.292969 36.695312 16.292969 C 37.796875 16.292969 38.691406 15.402344 38.691406 14.300781 Z M 38.691406 14.300781 "/>
<path style=" stroke:none;fill-rule:nonzero;fill:rgb(0%,0%,0%);fill-opacity:1;" d="M 72.707031 36.976562 C 72.707031 35.878906 71.8125 34.984375 70.714844 34.984375 C 69.613281 34.984375 68.722656 35.878906 68.722656 36.976562 C 68.722656 38.078125 69.613281 38.972656 70.714844 38.972656 C 71.8125 38.972656 72.707031 38.078125 72.707031 36.976562 Z M 72.707031 36.976562 "/>
<path style=" stroke:none;fill-rule:nonzero;fill:rgb(0%,0%,0%);fill-opacity:1;" d="M 16.011719 2.960938 C 16.011719 1.863281 15.121094 0.96875 14.019531 0.96875 C 12.917969 0.96875 12.027344 1.863281 12.027344 2.960938 C 12.027344 4.0625 12.917969 4.953125 14.019531 4.953125 C 15.121094 4.953125 16.011719 4.0625 16.011719 2.960938 Z M 16.011719 2.960938 "/>
<path style=" stroke:none;fill-rule:nonzero;fill:rgb(0%,0%,0%);fill-opacity:1;" d="M 61.367188 2.960938 C 61.367188 1.863281 60.476562 0.96875 59.375 0.96875 C 58.273438 0.96875 57.382812 1.863281 57.382812 2.960938 C 57.382812 4.0625 58.273438 4.953125 59.375 4.953125 C 60.476562 4.953125 61.367188 4.0625 61.367188 2.960938 Z M 61.367188 2.960938 "/>
</g>
</svg>
