<?xml version="1.0" encoding="UTF-8"?>
<svg xmlns="http://www.w3.org/2000/svg" xmlns:xlink="http://www.w3.org/1999/xlink" width="57pt" height="42pt" viewBox="0 0 57 42" version="1.1">
<g id="surface1">
<path style=" stroke:none;fill-rule:nonzero;fill:rgb(0%,0%,0%);fill-opacity:1;" d="M 5.796875 3.152344 C 5.796875 1.742188 4.65625 0.597656 3.246094 0.597656 C 1.835938 0.597656 0.695312 1.742188 0.695312 3.152344 C 0.695312 4.558594 1.835938 5.703125 3.246094 5.703125 C 4.65625 5.703125 5.796875 4.558594 5.796875 3.152344 Z M 31.308594 3.152344 C 31.308594 1.742188 30.167969 0.597656 28.757812 0.597656 C 27.347656 0.597656 26.207031 1.742188 26.207031 3.152344 C 26.207031 4.558594 27.347656 5.703125 28.757812 5.703125 C 30.167969 5.703125 31.308594 4.558594 31.308594 3.152344 Z M 56.820312 3.152344 C 56.820312 1.742188 55.679688 0.597656 54.269531 0.597656 C 52.859375 0.597656 51.71875 1.742188 51.71875 3.152344 C 51.71875 4.558594 52.859375 5.703125 54.269531 5.703125 C 55.679688 5.703125 56.820312 4.558594 56.820312 3.152344 Z M 56.820312 3.152344 "/>
<path style="fill:none;stroke-width:0.3985;stroke-linecap:butt;stroke-linejoin:miter;stroke:rgb(0%,0%,0%);stroke-opacity:1;stroke-miterlimit:10;" d="M -25.511906 25.511094 L -12.961125 0.409531 " transform="matrix(1,0,0,-1,28.758,33.765)"/>
<path style="fill:none;stroke-width:0.31879;stroke-linecap:round;stroke-linejoin:round;stroke:rgb(0%,0%,0%);stroke-opacity:1;stroke-miterlimit:10;" d="M -1.19461 1.592886 C -1.095057 0.997186 0.00197071 0.0992345 0.297195 -0.000349953 C -0.00153023 -0.0999132 -1.096875 -0.997786 -1.194724 -1.595226 " transform="matrix(0.44725,0.89442,0.89442,-0.44725,15.79708,33.35512)"/>
<path style="fill:none;stroke-width:0.3985;stroke-linecap:butt;stroke-linejoin:miter;stroke:rgb(0%,0%,0%);stroke-opacity:1;stroke-miterlimit:10;" d="M 25.511531 25.511094 L 12.96075 0.409531 " transform="matrix(1,0,0,-1,28.758,33.765)"/>
<path style="fill:none;stroke-width:0.31879;stroke-linecap:round;stroke-linejoin:round;stroke:rgb(0%,0%,0%);stroke-opacity:1;stroke-miterlimit:10;" d="M -1.194556 1.594891 C -1.096708 0.997451 -0.00136252 0.0995778 0.297363 0.0000145518 C 0.00213843 -0.0995699 -1.094889 -0.997521 -1.194442 -1.593222 " transform="matrix(-0.44725,0.89442,0.89442,0.44725,41.71892,33.35512)"/>
<path style="fill:none;stroke-width:0.3985;stroke-linecap:butt;stroke-linejoin:miter;stroke:rgb(0%,0%,0%);stroke-opacity:1;stroke-miterlimit:10;" d="M -10.203312 -5.102187 C -10.203312 -3.692031 -11.347844 -2.551406 -12.754094 -2.551406 C -14.16425 -2.551406 -15.308781 -3.692031 -15.308781 -5.102187 C -15.308781 -6.512344 -14.16425 -7.652969 -12.754094 -7.652969 C -11.347844 -7.652969 -10.203312 -6.512344 -10.203312 -5.102187 Z M 15.308406 -5.102187 C 15.308406 -3.692031 14.163875 -2.551406 12.757625 -2.551406 C 11.347469 -2.551406 10.202938 -3.692031 10.202938 -5.102187 C 10.202938 -6.512344 11.347469 -7.652969 12.757625 -7.652969 C 14.163875 -7.652969 15.308406 -6.512344 15.308406 -5.102187 Z M 15.308406 -5.102187 " transform="matrix(1,0,0,-1,28.758,33.765)"/>
</g>
</svg>
